# Blender v3.1.2 OBJ File: 'Yi.blend'
# www.blender.org
mtllib map_3.mtl
o cube1_Cube.003
v 300.000000 -0.022060 -300.000000
v 300.000000 -4.022060 -300.000000
v 300.000000 -0.022060 300.000000
v 300.000000 -4.022060 300.000000
v -300.000000 -0.022060 -300.000000
v -300.000000 -4.022060 -300.000000
v -300.000000 -0.022060 300.000000
v -300.000000 -4.022060 300.000000
vt 0.625000 0.500000
vt 0.875000 0.500000
vt 0.875000 0.750000
vt 0.625000 0.750000
vt 0.375000 0.750000
vt 0.625000 1.000000
vt 0.375000 1.000000
vt 0.375000 0.000000
vt 0.625000 0.000000
vt 0.625000 0.250000
vt 0.375000 0.250000
vt 0.125000 0.500000
vt 0.375000 0.500000
vt 0.125000 0.750000
vn 0.0000 1.0000 0.0000
vn 0.0000 0.0000 1.0000
vn -1.0000 0.0000 0.0000
vn 0.0000 -1.0000 0.0000
vn 1.0000 0.0000 0.0000
vn 0.0000 0.0000 -1.0000
usemtl Material.003
s off
f 1/1/1 5/2/1 7/3/1 3/4/1
f 4/5/2 3/4/2 7/6/2 8/7/2
f 8/8/3 7/9/3 5/10/3 6/11/3
f 6/12/4 2/13/4 4/5/4 8/14/4
f 2/13/5 1/1/5 3/4/5 4/5/5
f 6/11/6 5/10/6 1/1/6 2/13/6
o Cube
v -300.000000 -0.022057 -209.818909
v -300.000000 69.492950 -209.818909
v -300.000000 -0.022057 -300.000000
v -300.000000 69.492950 -300.000000
v -267.009155 -0.022057 -209.818909
v -267.009155 69.492950 -209.818909
v -267.009155 -0.022057 -300.000000
v -267.009155 69.492950 -300.000000
v -300.000000 -0.022057 299.999969
v -300.000000 69.492950 299.999969
v -267.009155 69.492950 299.999969
v -267.009155 -0.022057 299.999969
vt 1.000000 0.375000
vt 1.000000 0.625000
vt 0.750000 0.625000
vt 0.750000 0.375000
vt 0.500000 0.625000
vt 0.500000 0.375000
vt 0.250000 0.625000
vt 0.250000 0.375000
vt 0.250000 0.875000
vt -1.163320 0.875000
vt -1.163320 0.625000
vt 0.500000 0.125000
vt 0.250000 0.125000
vt 0.500000 0.875000
vt 0.250000 0.375000
vt 0.250000 0.625000
vt 0.000000 0.625000
vt 0.000000 0.375000
vt -1.163320 0.375000
vt 2.413320 0.375000
vt 2.413320 0.625000
vt -1.163320 0.125000
vn -1.0000 0.0000 0.0000
vn 0.0000 0.0000 -1.0000
vn 1.0000 0.0000 0.0000
vn 0.0000 1.0000 0.0000
vn 0.0000 -1.0000 0.0000
vn 0.0000 0.0000 1.0000
usemtl Material.004
s off
f 9/15/7 10/16/7 12/17/7 11/18/7
f 11/18/8 12/17/8 16/19/8 15/20/8
f 15/20/9 16/19/9 14/21/9 13/22/9
f 14/21/10 10/23/10 18/24/10 19/25/10
f 11/26/11 15/20/11 13/22/11 9/27/11
f 16/19/10 12/28/10 10/23/10 14/21/10
f 20/29/12 19/30/12 18/31/12 17/32/12
f 13/22/9 14/21/9 19/25/9 20/33/9
f 10/16/7 9/15/7 17/34/7 18/35/7
f 9/27/11 13/22/11 20/33/11 17/36/11
o Cube.001
v 210.087280 -0.022057 -267.201599
v 210.087280 69.492950 -267.201599
v 210.087280 -0.022057 -300.000000
v 210.087280 69.492950 -300.000000
v 300.000000 -0.022057 -267.201599
v 300.000000 69.492950 -267.201599
v 300.000000 -0.022057 -300.000000
v 300.000000 69.492950 -300.000000
v -267.009155 -0.022057 -300.000000
v -267.009155 -0.022057 -267.201599
v -267.009155 69.492950 -267.201599
v -267.009155 69.492950 -300.000000
vt 0.375000 1.000000
vt 0.625000 1.000000
vt 0.625000 2.326554
vt 0.375000 2.326554
vt 0.875000 0.500000
vt 0.875000 0.750000
vt 0.625000 0.750000
vt 0.625000 0.500000
vt 0.375000 0.750000
vt 0.375000 0.500000
vt 0.125000 0.750000
vt 0.125000 0.500000
vt 0.625000 0.250000
vt 0.375000 0.250000
vt 1.125000 0.500000
vt 1.125000 0.750000
vt 0.875000 0.750000
vt 0.875000 0.500000
vt 0.375000 -1.076554
vt 0.625000 -1.076554
vt 2.201554 0.500000
vt 2.201554 0.750000
vt -1.201554 0.750000
vt -1.201554 0.500000
vn 0.0000 1.0000 0.0000
vn 0.0000 0.0000 -1.0000
vn 1.0000 0.0000 0.0000
vn 0.0000 0.0000 1.0000
vn 0.0000 -1.0000 0.0000
vn -1.0000 0.0000 0.0000
usemtl Material.004
s off
f 22/37/13 24/38/13 32/39/13 31/40/13
f 23/41/14 24/42/14 28/43/14 27/44/14
f 27/44/15 28/43/15 26/45/15 25/46/15
f 25/46/16 26/45/16 22/47/16 21/48/16
f 23/49/17 27/44/17 25/46/17 21/50/17
f 28/43/13 24/38/13 22/37/13 26/45/13
f 30/51/18 31/52/18 32/53/18 29/54/18
f 23/49/17 21/50/17 30/55/17 29/56/17
f 24/42/14 23/41/14 29/57/14 32/58/14
f 21/48/16 22/47/16 31/59/16 30/60/16
o Cube.002_Cube.005
v 300.000000 -0.022057 -43.155861
v 300.000000 69.492950 -43.155861
v 267.201599 -0.022057 -43.155861
v 267.201599 69.492950 -43.155861
v 300.000000 -0.022057 -133.068604
v 300.000000 69.492950 -133.068604
v 267.201599 -0.022057 -133.068604
v 267.201599 69.492950 -133.068604
v 267.201599 69.492950 -267.201599
v 267.201599 -0.022057 -267.201599
v 300.000000 -0.022057 -267.201599
v 300.000000 69.492950 -267.201599
v 267.201599 -0.022057 267.201538
v 300.000000 -0.022057 267.201538
v 300.000000 69.492950 267.201538
v 267.201599 69.492950 267.201538
vt 0.750000 0.625000
vt 0.750000 0.375000
vt 1.612940 0.375000
vt 1.612941 0.625000
vt 0.500000 0.625000
vt 0.500000 0.375000
vt 0.250000 0.625000
vt 0.250000 0.252047
vt 0.500000 0.252047
vt 0.250000 0.375000
vt 0.000000 0.625000
vt 0.000000 0.375000
vt 0.500000 0.125000
vt 0.250000 0.125000
vt 0.500000 0.875000
vt 0.250000 0.875000
vt 0.500000 0.375000
vt 0.500000 0.625000
vt 0.250000 0.625000
vt 0.250000 0.375000
vt 0.127047 0.625000
vt 0.127047 0.375000
vt 0.622953 0.375000
vt 0.622953 0.625000
vt 0.500000 0.747953
vt 0.250000 0.747953
vt 1.000000 0.375000
vt 1.000000 0.625000
vt 0.750000 0.625000
vt 0.750000 0.375000
vt -0.862941 0.625000
vt -0.862941 0.375000
vt 0.500000 1.737940
vt 0.250000 1.737941
vt 0.250000 -0.737941
vt 0.500000 -0.737940
vn -1.0000 0.0000 0.0000
vn 0.0000 1.0000 0.0000
vn 1.0000 0.0000 0.0000
vn 0.0000 -1.0000 0.0000
vn 0.0000 0.0000 -1.0000
vn 0.0000 0.0000 1.0000
usemtl Material.004
s off
f 36/61/19 35/62/19 45/63/19 48/64/19
f 35/62/19 36/61/19 40/65/19 39/66/19
f 40/65/20 38/67/20 44/68/20 41/69/20
f 37/70/21 38/67/21 34/71/21 33/72/21
f 35/73/22 39/66/22 37/70/22 33/74/22
f 40/65/20 36/75/20 34/76/20 38/67/20
f 42/77/23 41/78/23 44/79/23 43/80/23
f 39/66/19 40/65/19 41/81/19 42/82/19
f 38/67/21 37/70/21 43/83/21 44/84/21
f 37/70/22 39/66/22 42/85/22 43/86/22
f 46/87/24 47/88/24 48/89/24 45/90/24
f 33/72/21 34/71/21 47/91/21 46/92/21
f 34/76/20 36/75/20 48/93/20 47/94/20
f 35/73/22 33/74/22 46/95/22 45/96/22
o Cube.003_Cube.006
v 300.000000 -0.022057 267.201538
v 300.000000 69.492950 267.201538
v 300.000000 -0.022057 299.999939
v 300.000000 69.492950 299.999939
v 210.087265 -0.022057 267.201599
v 210.087265 69.492950 267.201599
v 210.087280 -0.022057 300.000000
v 210.087280 69.492950 300.000000
v -267.009155 69.492950 300.000153
v -267.009155 -0.022057 300.000153
v -267.009155 -0.022057 267.201752
v -267.009155 69.492950 267.201752
vt 1.000000 0.375000
vt 1.000000 0.625000
vt 0.750000 0.625000
vt 0.750000 0.375000
vt 0.500000 0.625000
vt 0.500000 0.375000
vt 0.250000 0.625000
vt 0.250000 -0.701555
vt 0.500000 -0.701555
vt 0.250000 0.375000
vt 0.000000 0.625000
vt 0.000000 0.375000
vt 0.500000 0.125000
vt 0.250000 0.125000
vt 0.500000 0.875000
vt 0.250000 0.875000
vt 0.500000 0.375000
vt 0.500000 0.625000
vt 0.250000 0.625000
vt 0.250000 0.375000
vt -0.826554 0.625000
vt -0.826554 0.375000
vt 1.576554 0.375000
vt 1.576554 0.625000
vt 0.500000 1.701554
vt 0.250000 1.701554
vn 1.0000 0.0000 0.0000
vn 0.0000 0.0000 1.0000
vn 0.0000 1.0000 0.0000
vn -0.0000 0.0000 -1.0000
vn 0.0000 -1.0000 0.0000
vn -1.0000 0.0000 0.0000
usemtl Material.004
s off
f 49/97/25 50/98/25 52/99/25 51/100/25
f 51/100/26 52/99/26 56/101/26 55/102/26
f 56/101/27 54/103/27 60/104/27 57/105/27
f 53/106/28 54/103/28 50/107/28 49/108/28
f 51/109/29 55/102/29 53/106/29 49/110/29
f 56/101/27 52/111/27 50/112/27 54/103/27
f 58/113/30 57/114/30 60/115/30 59/116/30
f 55/102/26 56/101/26 57/117/26 58/118/26
f 54/103/28 53/106/28 59/119/28 60/120/28
f 53/106/29 55/102/29 58/121/29 59/122/29
o Cube.004_Cube.007
v -183.464005 -0.021996 -180.135223
v -183.464005 69.492950 -180.135223
v -183.464005 -0.021996 -208.863312
v -183.464005 69.492950 -208.863312
v -63.026962 -0.021996 -180.135223
v -63.026962 69.492950 -180.135223
v -63.026962 -0.021996 -208.863312
v -63.026962 69.492950 -208.863312
vt 1.000000 0.375000
vt 1.000000 0.625000
vt 0.750000 0.625000
vt 0.750000 0.375000
vt 0.500000 0.625000
vt 0.500000 0.375000
vt 0.250000 0.625000
vt 0.250000 0.375000
vt 0.000000 0.625000
vt 0.000000 0.375000
vt 0.500000 0.125000
vt 0.250000 0.125000
vt 0.500000 0.875000
vt 0.250000 0.875000
vn -1.0000 0.0000 0.0000
vn 0.0000 0.0000 -1.0000
vn 1.0000 0.0000 0.0000
vn 0.0000 0.0000 1.0000
vn 0.0000 -1.0000 0.0000
vn 0.0000 1.0000 0.0000
usemtl Material.004
s off
f 61/123/31 62/124/31 64/125/31 63/126/31
f 63/126/32 64/125/32 68/127/32 67/128/32
f 67/128/33 68/127/33 66/129/33 65/130/33
f 65/130/34 66/129/34 62/131/34 61/132/34
f 63/133/35 67/128/35 65/130/35 61/134/35
f 68/127/36 64/135/36 62/136/36 66/129/36
o Cube.005_Cube.011
v -183.464005 -0.021996 -89.669922
v -183.464005 69.492950 -89.669922
v -183.464005 -0.021996 -118.397995
v -183.464005 69.492950 -118.397995
v -63.026962 -0.021996 -89.669922
v -63.026962 69.492950 -89.669922
v -63.026962 -0.021996 -118.397995
v -63.026962 69.492950 -118.397995
vt 1.000000 0.375000
vt 1.000000 0.625000
vt 0.750000 0.625000
vt 0.750000 0.375000
vt 0.500000 0.625000
vt 0.500000 0.375000
vt 0.250000 0.625000
vt 0.250000 0.375000
vt 0.000000 0.625000
vt 0.000000 0.375000
vt 0.500000 0.125000
vt 0.250000 0.125000
vt 0.500000 0.875000
vt 0.250000 0.875000
vn -1.0000 0.0000 0.0000
vn 0.0000 0.0000 -1.0000
vn 1.0000 0.0000 0.0000
vn 0.0000 0.0000 1.0000
vn 0.0000 -1.0000 0.0000
vn 0.0000 1.0000 0.0000
usemtl Material.005
s off
f 69/137/37 70/138/37 72/139/37 71/140/37
f 71/140/38 72/139/38 76/141/38 75/142/38
f 75/142/39 76/141/39 74/143/39 73/144/39
f 73/144/40 74/143/40 70/145/40 69/146/40
f 71/147/41 75/142/41 73/144/41 69/148/41
f 76/141/42 72/149/42 70/150/42 74/143/42
o Cube.006_Cube.013
v -183.464005 -0.021996 -2.974625
v -183.464005 69.492950 -2.974625
v -183.464005 -0.021996 -31.702698
v -183.464005 69.492950 -31.702698
v -63.026962 -0.021996 -2.974625
v -63.026962 69.492950 -2.974625
v -63.026962 -0.021996 -31.702698
v -63.026962 69.492950 -31.702698
vt 1.000000 0.375000
vt 1.000000 0.625000
vt 0.750000 0.625000
vt 0.750000 0.375000
vt 0.500000 0.625000
vt 0.500000 0.375000
vt 0.250000 0.625000
vt 0.250000 0.375000
vt 0.000000 0.625000
vt 0.000000 0.375000
vt 0.500000 0.125000
vt 0.250000 0.125000
vt 0.500000 0.875000
vt 0.250000 0.875000
vn -1.0000 0.0000 0.0000
vn 0.0000 0.0000 -1.0000
vn 1.0000 0.0000 0.0000
vn 0.0000 0.0000 1.0000
vn 0.0000 -1.0000 0.0000
vn 0.0000 1.0000 0.0000
usemtl Material.014
s off
f 77/151/43 78/152/43 80/153/43 79/154/43
f 79/154/44 80/153/44 84/155/44 83/156/44
f 83/156/45 84/155/45 82/157/45 81/158/45
f 81/158/46 82/157/46 78/159/46 77/160/46
f 79/161/47 83/156/47 81/158/47 77/162/47
f 84/155/48 80/163/48 78/164/48 82/157/48
o Cube.007_Cube.015
v -34.298897 -0.021996 -88.426254
v -34.298897 69.492950 -88.426254
v -63.026970 -0.021996 -88.426254
v -63.026970 69.492950 -88.426254
v -34.298904 -0.021996 -208.863297
v -34.298904 69.492950 -208.863297
v -63.026978 -0.021996 -208.863297
v -63.026978 69.492950 -208.863297
v -63.026966 -0.021996 -2.974625
v -34.298893 -0.021996 -2.974625
v -34.298893 69.492950 -2.974625
v -63.026966 69.492950 -2.974625
vt 0.250000 0.875000
vt 0.500000 0.875000
vt 0.500000 1.052378
vt 0.250000 1.052378
vt 0.750000 0.375000
vt 0.750000 0.625000
vt 0.500000 0.625000
vt 0.500000 0.375000
vt 0.250000 0.625000
vt 0.250000 0.375000
vt 0.000000 0.625000
vt 0.000000 0.375000
vt 0.500000 0.125000
vt 0.250000 0.125000
vt 1.000000 0.375000
vt 1.000000 0.625000
vt 0.750000 0.625000
vt 0.750000 0.375000
vt 0.250000 -0.052378
vt 0.500000 -0.052378
vt 0.927378 0.375000
vt 0.927378 0.625000
vt -0.177378 0.625000
vt -0.177378 0.375000
vn 0.0000 1.0000 0.0000
vn -1.0000 0.0000 0.0000
vn 0.0000 0.0000 -1.0000
vn 1.0000 0.0000 -0.0000
vn 0.0000 -1.0000 -0.0000
vn 0.0000 0.0000 1.0000
usemtl Material.017
s off
f 86/165/49 88/166/49 96/167/49 95/168/49
f 87/169/50 88/170/50 92/171/50 91/172/50
f 91/172/51 92/171/51 90/173/51 89/174/51
f 89/174/52 90/173/52 86/175/52 85/176/52
f 87/177/53 91/172/53 89/174/53 85/178/53
f 92/171/49 88/166/49 86/165/49 90/173/49
f 94/179/54 95/180/54 96/181/54 93/182/54
f 87/177/53 85/178/53 94/183/53 93/184/53
f 88/170/50 87/169/50 93/185/50 96/186/50
f 85/176/52 86/175/52 95/187/52 94/188/52
o Cube.008_Cube.016
v 184.149933 -0.021996 -88.426254
v 184.149933 69.492950 -88.426254
v 155.421860 -0.021996 -88.426254
v 155.421860 69.492950 -88.426254
v 184.149918 -0.021996 -208.863297
v 184.149918 69.492950 -208.863297
v 155.421844 -0.021996 -208.863297
v 155.421844 69.492950 -208.863297
v 155.421860 -0.021996 -2.974625
v 184.149933 -0.021996 -2.974625
v 184.149933 69.492950 -2.974625
v 155.421860 69.492950 -2.974625
vt 0.250000 0.875000
vt 0.500000 0.875000
vt 0.500000 1.052378
vt 0.250000 1.052378
vt 0.750000 0.375000
vt 0.750000 0.625000
vt 0.500000 0.625000
vt 0.500000 0.375000
vt 0.250000 0.625000
vt 0.250000 0.375000
vt 0.000000 0.625000
vt 0.000000 0.375000
vt 0.500000 0.125000
vt 0.250000 0.125000
vt 1.000000 0.375000
vt 1.000000 0.625000
vt 0.750000 0.625000
vt 0.750000 0.375000
vt 0.250000 -0.052378
vt 0.500000 -0.052378
vt 0.927378 0.375000
vt 0.927378 0.625000
vt -0.177378 0.625000
vt -0.177378 0.375000
vn 0.0000 1.0000 0.0000
vn -1.0000 0.0000 0.0000
vn 0.0000 0.0000 -1.0000
vn 1.0000 0.0000 -0.0000
vn 0.0000 -1.0000 -0.0000
vn 0.0000 0.0000 1.0000
usemtl Material.027
s off
f 98/189/55 100/190/55 108/191/55 107/192/55
f 99/193/56 100/194/56 104/195/56 103/196/56
f 103/196/57 104/195/57 102/197/57 101/198/57
f 101/198/58 102/197/58 98/199/58 97/200/58
f 99/201/59 103/196/59 101/198/59 97/202/59
f 104/195/55 100/190/55 98/189/55 102/197/55
f 106/203/60 107/204/60 108/205/60 105/206/60
f 99/201/59 97/202/59 106/207/59 105/208/59
f 100/194/56 99/193/56 105/209/56 108/210/56
f 97/200/58 98/199/58 107/211/58 106/212/58
o Cube.009_Cube.019
v 34.984818 -0.021996 -2.974625
v 34.984818 69.492950 -2.974625
v 34.984818 -0.021996 -31.702698
v 34.984818 69.492950 -31.702698
v 155.421860 -0.021996 -2.974625
v 155.421860 69.492950 -2.974625
v 155.421860 -0.021996 -31.702698
v 155.421860 69.492950 -31.702698
vt 1.000000 0.375000
vt 1.000000 0.625000
vt 0.750000 0.625000
vt 0.750000 0.375000
vt 0.500000 0.625000
vt 0.500000 0.375000
vt 0.250000 0.625000
vt 0.250000 0.375000
vt 0.000000 0.625000
vt 0.000000 0.375000
vt 0.500000 0.125000
vt 0.250000 0.125000
vt 0.500000 0.875000
vt 0.250000 0.875000
vn -1.0000 0.0000 0.0000
vn 0.0000 0.0000 -1.0000
vn 1.0000 0.0000 0.0000
vn 0.0000 0.0000 1.0000
vn 0.0000 -1.0000 0.0000
vn 0.0000 1.0000 0.0000
usemtl Material.029
s off
f 109/213/61 110/214/61 112/215/61 111/216/61
f 111/216/62 112/215/62 116/217/62 115/218/62
f 115/218/63 116/217/63 114/219/63 113/220/63
f 113/220/64 114/219/64 110/221/64 109/222/64
f 111/223/65 115/218/65 113/220/65 109/224/65
f 116/217/66 112/225/66 110/226/66 114/219/66
o Cube.010_Cube.021
v 34.984818 -0.021996 -89.669922
v 34.984818 69.492950 -89.669922
v 34.984818 -0.021996 -118.397995
v 34.984818 69.492950 -118.397995
v 155.421860 -0.021996 -89.669922
v 155.421860 69.492950 -89.669922
v 155.421860 -0.021996 -118.397995
v 155.421860 69.492950 -118.397995
vt 1.000000 0.375000
vt 1.000000 0.625000
vt 0.750000 0.625000
vt 0.750000 0.375000
vt 0.500000 0.625000
vt 0.500000 0.375000
vt 0.250000 0.625000
vt 0.250000 0.375000
vt 0.000000 0.625000
vt 0.000000 0.375000
vt 0.500000 0.125000
vt 0.250000 0.125000
vt 0.500000 0.875000
vt 0.250000 0.875000
vn -1.0000 0.0000 0.0000
vn 0.0000 0.0000 -1.0000
vn 1.0000 0.0000 0.0000
vn 0.0000 0.0000 1.0000
vn 0.0000 -1.0000 0.0000
vn 0.0000 1.0000 0.0000
usemtl Material.039
s off
f 117/227/67 118/228/67 120/229/67 119/230/67
f 119/230/68 120/229/68 124/231/68 123/232/68
f 123/232/69 124/231/69 122/233/69 121/234/69
f 121/234/70 122/233/70 118/235/70 117/236/70
f 119/237/71 123/232/71 121/234/71 117/238/71
f 124/231/72 120/239/72 118/240/72 122/233/72
o Cube.011_Cube.022
v 34.984818 -0.021996 -180.135223
v 34.984818 69.492950 -180.135223
v 34.984818 -0.021996 -208.863312
v 34.984818 69.492950 -208.863312
v 155.421860 -0.021996 -180.135223
v 155.421860 69.492950 -180.135223
v 155.421860 -0.021996 -208.863312
v 155.421860 69.492950 -208.863312
vt 1.000000 0.375000
vt 1.000000 0.625000
vt 0.750000 0.625000
vt 0.750000 0.375000
vt 0.500000 0.625000
vt 0.500000 0.375000
vt 0.250000 0.625000
vt 0.250000 0.375000
vt 0.000000 0.625000
vt 0.000000 0.375000
vt 0.500000 0.125000
vt 0.250000 0.125000
vt 0.500000 0.875000
vt 0.250000 0.875000
vn -1.0000 0.0000 0.0000
vn 0.0000 0.0000 -1.0000
vn 1.0000 0.0000 0.0000
vn 0.0000 0.0000 1.0000
vn 0.0000 -1.0000 0.0000
vn 0.0000 1.0000 0.0000
usemtl Material.040
s off
f 125/241/73 126/242/73 128/243/73 127/244/73
f 127/244/74 128/243/74 132/245/74 131/246/74
f 131/246/75 132/245/75 130/247/75 129/248/75
f 129/248/76 130/247/76 126/249/76 125/250/76
f 127/251/77 131/246/77 129/248/77 125/252/77
f 132/245/78 128/253/78 126/254/78 130/247/78
o Cube.012_Cube.024
v -209.283722 -0.022057 150.276505
v -209.283722 69.492950 150.276505
v -209.283722 -0.022057 92.079849
v -209.283722 69.492950 92.079849
v -121.018822 -0.022057 150.276505
v -121.018822 69.492950 150.276505
v -121.018822 -0.022057 92.079849
v -121.018822 69.492950 92.079849
v 208.650940 69.492950 92.079849
v 208.650940 -0.022057 92.079849
v 208.650940 -0.022057 150.276505
v 208.650940 69.492950 150.276505
vt 1.000000 0.375000
vt 1.000000 0.625000
vt 0.750000 0.625000
vt 0.750000 0.375000
vt 0.500000 0.625000
vt 0.500000 0.375000
vt 0.250000 0.625000
vt 0.250000 0.375000
vt 1.183751 0.375000
vt 1.183751 0.625000
vt 0.000000 0.625000
vt 0.000000 0.375000
vt 0.500000 0.125000
vt 0.250000 0.125000
vt 0.500000 0.875000
vt 0.250000 0.875000
vt 0.500000 0.375000
vt 0.500000 0.625000
vt 0.250000 0.625000
vt 0.250000 0.375000
vt 0.500000 1.308751
vt 0.250000 1.308751
vt 0.250000 -0.308751
vt 0.500000 -0.308751
vt -0.433751 0.625000
vt -0.433751 0.375000
vn -1.0000 0.0000 0.0000
vn 0.0000 0.0000 -1.0000
vn 0.0000 0.0000 1.0000
vn 0.0000 -1.0000 0.0000
vn 0.0000 1.0000 0.0000
vn 1.0000 0.0000 0.0000
usemtl Material.004
s off
f 133/255/79 134/256/79 136/257/79 135/258/79
f 135/258/80 136/257/80 140/259/80 139/260/80
f 138/261/81 137/262/81 143/263/81 144/264/81
f 137/262/81 138/261/81 134/265/81 133/266/81
f 135/267/82 139/260/82 137/262/82 133/268/82
f 140/259/83 136/269/83 134/270/83 138/261/83
f 142/271/84 141/272/84 144/273/84 143/274/84
f 137/262/82 139/260/82 142/275/82 143/276/82
f 140/259/83 138/261/83 144/277/83 141/278/83
f 139/260/80 140/259/80 141/279/80 142/280/80
o Cube.013_Cube.025
v -121.129456 -0.022057 92.079849
v -121.129456 69.492950 92.079849
v -121.129456 -0.022057 29.623924
v -121.129456 69.492950 29.623924
v -59.783264 -0.022057 92.079849
v -59.783264 69.492950 92.079849
v -59.783264 -0.022057 29.623924
v -59.783264 69.492950 29.623924
vt 1.000000 0.375000
vt 1.000000 0.625000
vt 0.750000 0.625000
vt 0.750000 0.375000
vt 0.500000 0.625000
vt 0.500000 0.375000
vt 0.250000 0.625000
vt 0.250000 0.375000
vt 0.000000 0.625000
vt 0.000000 0.375000
vt 0.500000 0.125000
vt 0.250000 0.125000
vt 0.500000 0.875000
vt 0.250000 0.875000
vn -1.0000 0.0000 0.0000
vn 0.0000 0.0000 -1.0000
vn 1.0000 0.0000 0.0000
vn 0.0000 0.0000 1.0000
vn 0.0000 -1.0000 0.0000
vn 0.0000 1.0000 0.0000
usemtl Material.004
s off
f 145/281/85 146/282/85 148/283/85 147/284/85
f 147/284/86 148/283/86 152/285/86 151/286/86
f 151/286/87 152/285/87 150/287/87 149/288/87
f 149/288/88 150/287/88 146/289/88 145/290/88
f 147/291/89 151/286/89 149/288/89 145/292/89
f 152/285/90 148/293/90 146/294/90 150/287/90
o Cube.014_Cube.026
v 64.293823 -0.022057 92.079849
v 64.293823 69.492950 92.079849
v 64.293823 -0.022057 29.623924
v 64.293823 69.492950 29.623924
v 125.640015 -0.022057 92.079849
v 125.640015 69.492950 92.079849
v 125.640015 -0.022057 29.623924
v 125.640015 69.492950 29.623924
vt 1.000000 0.375000
vt 1.000000 0.625000
vt 0.750000 0.625000
vt 0.750000 0.375000
vt 0.500000 0.625000
vt 0.500000 0.375000
vt 0.250000 0.625000
vt 0.250000 0.375000
vt 0.000000 0.625000
vt 0.000000 0.375000
vt 0.500000 0.125000
vt 0.250000 0.125000
vt 0.500000 0.875000
vt 0.250000 0.875000
vn -1.0000 0.0000 0.0000
vn 0.0000 0.0000 -1.0000
vn 1.0000 0.0000 0.0000
vn 0.0000 0.0000 1.0000
vn 0.0000 -1.0000 0.0000
vn 0.0000 1.0000 0.0000
usemtl Material.042
s off
f 153/295/91 154/296/91 156/297/91 155/298/91
f 155/298/92 156/297/92 160/299/92 159/300/92
f 159/300/93 160/299/93 158/301/93 157/302/93
f 157/302/94 158/301/94 154/303/94 153/304/94
f 155/305/95 159/300/95 157/302/95 153/306/95
f 160/299/96 156/307/96 154/308/96 158/301/96
o Cube.015_Cube.036
v 64.293823 -0.022057 212.732437
v 64.293823 69.492950 212.732437
v 64.293823 -0.022057 150.276505
v 64.293823 69.492950 150.276505
v 125.640015 -0.022057 212.732437
v 125.640015 69.492950 212.732437
v 125.640015 -0.022057 150.276505
v 125.640015 69.492950 150.276505
v 64.293823 -0.022057 234.281494
v 64.293823 69.492950 234.281494
v 125.640015 69.492950 234.281494
v 125.640015 -0.022057 234.281494
vt 1.000000 0.375000
vt 1.000000 0.625000
vt 0.750000 0.625000
vt 0.750000 0.375000
vt 0.500000 0.625000
vt 0.500000 0.375000
vt 0.250000 0.625000
vt 0.250000 0.375000
vt 0.250000 0.875000
vt 0.163743 0.875000
vt 0.163743 0.625000
vt 0.500000 0.125000
vt 0.250000 0.125000
vt 0.500000 0.875000
vt 0.250000 0.375000
vt 0.250000 0.625000
vt 0.000000 0.625000
vt 0.000000 0.375000
vt 0.163743 0.375000
vt 1.086257 0.375000
vt 1.086257 0.625000
vt 0.163743 0.125000
vn -1.0000 0.0000 0.0000
vn 0.0000 0.0000 -1.0000
vn 1.0000 0.0000 0.0000
vn 0.0000 1.0000 0.0000
vn 0.0000 -1.0000 0.0000
vn 0.0000 0.0000 1.0000
usemtl Material.043
s off
f 161/309/97 162/310/97 164/311/97 163/312/97
f 163/312/98 164/311/98 168/313/98 167/314/98
f 167/314/99 168/313/99 166/315/99 165/316/99
f 166/315/100 162/317/100 170/318/100 171/319/100
f 163/320/101 167/314/101 165/316/101 161/321/101
f 168/313/100 164/322/100 162/317/100 166/315/100
f 172/323/102 171/324/102 170/325/102 169/326/102
f 165/316/99 166/315/99 171/319/99 172/327/99
f 162/310/97 161/309/97 169/328/97 170/329/97
f 161/321/101 165/316/101 172/327/101 169/330/101
o Cube.016_Cube.037
v -121.018814 -0.022057 212.732437
v -121.018814 69.492950 212.732437
v -121.018814 -0.022057 150.276505
v -121.018814 69.492950 150.276505
v -59.672623 -0.022057 212.732437
v -59.672623 69.492950 212.732437
v -59.672623 -0.022057 150.276505
v -59.672623 69.492950 150.276505
v -121.018814 -0.022057 234.281509
v -121.018814 69.492950 234.281509
v -59.672623 69.492950 234.281509
v -59.672623 -0.022057 234.281509
vt 1.000000 0.375000
vt 1.000000 0.625000
vt 0.750000 0.625000
vt 0.750000 0.375000
vt 0.500000 0.625000
vt 0.500000 0.375000
vt 0.250000 0.625000
vt 0.250000 0.375000
vt 0.163743 0.625000
vt 0.163743 0.375000
vt 0.500000 0.125000
vt 0.250000 0.125000
vt 0.500000 0.875000
vt 0.250000 0.875000
vt 0.250000 0.375000
vt 0.250000 0.625000
vt 0.000000 0.625000
vt 0.000000 0.375000
vt 1.086257 0.375000
vt 1.086257 0.625000
vt 0.163743 0.125000
vt 0.163743 0.875000
vn -1.0000 0.0000 0.0000
vn 0.0000 0.0000 -1.0000
vn 1.0000 0.0000 0.0000
vn 0.0000 -1.0000 0.0000
vn 0.0000 1.0000 0.0000
vn 0.0000 0.0000 1.0000
usemtl Material.044
s off
f 173/331/103 174/332/103 176/333/103 175/334/103
f 175/334/104 176/333/104 180/335/104 179/336/104
f 179/336/105 180/335/105 178/337/105 177/338/105
f 177/338/105 178/337/105 183/339/105 184/340/105
f 175/341/106 179/336/106 177/338/106 173/342/106
f 180/335/107 176/343/107 174/344/107 178/337/107
f 184/345/108 183/346/108 182/347/108 181/348/108
f 174/332/103 173/331/103 181/349/103 182/350/103
f 173/342/106 177/338/106 184/340/106 181/351/106
f 178/337/107 174/344/107 182/352/107 183/339/107
o Cube.017_Cube.038
v -300.000000 69.492950 300.000000
v -300.000000 80.370117 300.000000
v -300.000000 69.492950 -300.000000
v -300.000000 80.370117 -300.000000
v 300.000000 69.492950 300.000000
v 300.000000 80.370117 300.000000
v 300.000000 69.492950 -300.000000
v 300.000000 80.370117 -300.000000
vt 0.375000 0.000000
vt 0.625000 0.000000
vt 0.625000 0.250000
vt 0.375000 0.250000
vt 0.625000 0.500000
vt 0.375000 0.500000
vt 0.625000 0.750000
vt 0.375000 0.750000
vt 0.625000 1.000000
vt 0.375000 1.000000
vt 0.125000 0.500000
vt 0.125000 0.750000
vt 0.875000 0.500000
vt 0.875000 0.750000
vn -1.0000 0.0000 0.0000
vn 0.0000 0.0000 -1.0000
vn 1.0000 0.0000 0.0000
vn 0.0000 0.0000 1.0000
vn 0.0000 -1.0000 0.0000
vn 0.0000 1.0000 0.0000
usemtl Material.045
s off
f 185/353/109 186/354/109 188/355/109 187/356/109
f 187/356/110 188/355/110 192/357/110 191/358/110
f 191/358/111 192/357/111 190/359/111 189/360/111
f 189/360/112 190/359/112 186/361/112 185/362/112
f 187/363/113 191/358/113 189/360/113 185/364/113
f 192/357/114 188/365/114 186/366/114 190/359/114
