# Blender v3.1.2 OBJ File: 'untitled.blend'
# www.blender.org
mtllib maze.mtl
o cube1_Cube.003
v 100.000000 -0.022058 -100.000000
v 100.000000 -4.022058 -100.000000
v 100.000000 -0.022058 100.000000
v 100.000000 -4.022058 100.000000
v -100.000000 -0.022058 -100.000000
v -100.000000 -4.022058 -100.000000
v -100.000000 -0.022058 100.000000
v -100.000000 -4.022058 100.000000
vt 0.625000 0.500000
vt 0.875000 0.500000
vt 0.875000 0.750000
vt 0.625000 0.750000
vt 0.375000 0.750000
vt 0.625000 1.000000
vt 0.375000 1.000000
vt 0.375000 0.000000
vt 0.625000 0.000000
vt 0.625000 0.250000
vt 0.375000 0.250000
vt 0.125000 0.500000
vt 0.375000 0.500000
vt 0.125000 0.750000
vn 0.0000 1.0000 0.0000
vn 0.0000 0.0000 1.0000
vn -1.0000 0.0000 0.0000
vn 0.0000 -1.0000 0.0000
vn 1.0000 0.0000 0.0000
vn 0.0000 0.0000 -1.0000
usemtl Material.003
s off
f 1/1/1 5/2/1 7/3/1 3/4/1
f 4/5/2 3/4/2 7/6/2 8/7/2
f 8/8/3 7/9/3 5/10/3 6/11/3
f 6/12/4 2/13/4 4/5/4 8/14/4
f 2/13/5 1/1/5 3/4/5 4/5/5
f 6/11/6 5/10/6 1/1/6 2/13/6
o cube1.001_Cube.004
v -86.211777 35.342274 -100.000000
v -86.211777 -0.196831 -100.000000
v -86.211777 35.342274 100.000000
v -86.211777 -0.196831 100.000000
v -100.000000 35.342274 -100.000000
v -100.000000 -0.196831 -100.000000
v -100.000000 35.342274 100.000000
v -100.000000 -0.196831 100.000000
vt 0.500080 0.625000
vt 0.500165 0.875000
vt 0.251164 0.875085
vt 0.251079 0.625085
vt 0.250994 0.375085
vt 0.002078 0.625170
vt 0.001993 0.375170
vt 0.997997 0.374830
vt 0.998082 0.624829
vt 0.749081 0.624915
vt 0.748996 0.374915
vt 0.499910 0.125000
vt 0.499995 0.375000
vt 0.250909 0.125085
vn 0.0000 1.0000 0.0000
vn 0.0000 0.0000 1.0000
vn -1.0000 0.0000 0.0000
vn 0.0000 -1.0000 0.0000
vn 1.0000 0.0000 0.0000
vn 0.0000 0.0000 -1.0000
usemtl Material.008
s off
f 9/15/7 13/16/7 15/17/7 11/18/7
f 12/19/8 11/18/8 15/20/8 16/21/8
f 16/22/9 15/23/9 13/24/9 14/25/9
f 14/26/10 10/27/10 12/19/10 16/28/10
f 10/27/11 9/15/11 11/18/11 12/19/11
f 14/25/12 13/24/12 9/15/12 10/27/12
o cube1.002_Cube.006
v 100.000000 35.342274 -100.000000
v 100.000000 -0.196831 -100.000000
v 100.000000 35.342274 100.000000
v 100.000000 -0.196831 100.000000
v 88.000000 35.342274 -100.000000
v 88.000000 -0.196831 -100.000000
v 88.000000 35.342274 100.000000
v 88.000000 -0.196831 100.000000
vt 0.500478 0.631228
vt 0.498987 0.881224
vt 0.248991 0.879732
vt 0.250482 0.629737
vt 0.251974 0.379741
vt 0.000487 0.628246
vt 0.001978 0.378250
vt 1.001960 0.384215
vt 1.000469 0.634210
vt 0.750473 0.632719
vt 0.751965 0.382724
vt 0.503460 0.131237
vt 0.501969 0.381233
vt 0.253465 0.129746
vn 0.0000 1.0000 0.0000
vn 0.0000 0.0000 1.0000
vn -1.0000 0.0000 0.0000
vn 0.0000 -1.0000 0.0000
vn 1.0000 0.0000 0.0000
vn 0.0000 0.0000 -1.0000
usemtl Material.008
s off
f 17/29/13 21/30/13 23/31/13 19/32/13
f 20/33/14 19/32/14 23/34/14 24/35/14
f 24/36/15 23/37/15 21/38/15 22/39/15
f 22/40/16 18/41/16 20/33/16 24/42/16
f 18/41/17 17/29/17 19/32/17 20/33/17
f 22/39/18 21/38/18 17/29/18 18/41/18
o cube1.003_Cube.007
v -47.513550 35.342274 -88.000000
v -47.513550 -0.196831 -88.000000
v -47.513550 35.342274 3.177322
v -47.513550 -0.196831 3.177322
v -59.513550 35.342274 -88.000000
v -59.513550 -0.196831 -88.000000
v -59.513550 35.342274 3.177322
v -59.513550 -0.196831 3.177322
vt 0.500000 0.625000
vt 0.500000 0.875000
vt 0.250000 0.875000
vt 0.250000 0.625000
vt 0.250000 0.375000
vt 0.000000 0.625000
vt 0.000000 0.375000
vt 1.000000 0.375000
vt 1.000000 0.625000
vt 0.750000 0.625000
vt 0.750000 0.375000
vt 0.500000 0.125000
vt 0.500000 0.375000
vt 0.250000 0.125000
vn 0.0000 1.0000 0.0000
vn 0.0000 0.0000 1.0000
vn -1.0000 0.0000 0.0000
vn 0.0000 -1.0000 0.0000
vn 1.0000 0.0000 0.0000
vn 0.0000 0.0000 -1.0000
usemtl Material.008
s off
f 25/43/19 29/44/19 31/45/19 27/46/19
f 28/47/20 27/46/20 31/48/20 32/49/20
f 32/50/21 31/51/21 29/52/21 30/53/21
f 30/54/22 26/55/22 28/47/22 32/56/22
f 26/55/23 25/43/23 27/46/23 28/47/23
f 30/53/24 29/52/24 25/43/24 26/55/24
o cube1.004_Cube.008
v 12.612715 35.342274 -35.886383
v 12.612715 -0.196831 -35.886383
v 12.612715 35.342274 55.290939
v 12.612715 -0.196831 55.290939
v 0.612715 35.342274 -35.886383
v 0.612715 -0.196831 -35.886383
v 0.612715 35.342274 55.290939
v 0.612715 -0.196831 55.290939
vt 0.500000 0.625000
vt 0.500000 0.875000
vt 0.250000 0.875000
vt 0.250000 0.625000
vt 0.250000 0.375000
vt 0.000000 0.625000
vt 0.000000 0.375000
vt 1.000000 0.375000
vt 1.000000 0.625000
vt 0.750000 0.625000
vt 0.750000 0.375000
vt 0.500000 0.125000
vt 0.500000 0.375000
vt 0.250000 0.125000
vn 0.0000 1.0000 0.0000
vn 0.0000 0.0000 1.0000
vn -1.0000 0.0000 0.0000
vn 0.0000 -1.0000 0.0000
vn 1.0000 0.0000 0.0000
vn 0.0000 0.0000 -1.0000
usemtl Material.008
s off
f 33/57/25 37/58/25 39/59/25 35/60/25
f 36/61/26 35/60/26 39/62/26 40/63/26
f 40/64/27 39/65/27 37/66/27 38/67/27
f 38/68/28 34/69/28 36/61/28 40/70/28
f 34/69/29 33/57/29 35/60/29 36/61/29
f 38/67/30 37/66/30 33/57/30 34/69/30
o cube1.005_Cube.009
v 49.715591 35.342274 -56.211330
v 49.715591 -0.196831 -56.211330
v 49.715591 35.342274 -16.676151
v 49.715591 -0.196831 -16.676151
v 37.715591 35.342274 -56.211330
v 37.715591 -0.196831 -56.211330
v 37.715591 35.342274 -16.676151
v 37.715591 -0.196831 -16.676151
vt 0.499692 0.625000
vt 0.499077 0.874999
vt 0.249077 0.874383
vt 0.249693 0.624384
vt 0.250309 0.374385
vt -0.000306 0.623769
vt 0.000309 0.373769
vt 1.000306 0.376231
vt 0.999691 0.626231
vt 0.749691 0.625615
vt 0.750307 0.375616
vt 0.500923 0.125001
vt 0.500308 0.375000
vt 0.250924 0.124386
vn 0.0000 1.0000 0.0000
vn 0.0000 0.0000 1.0000
vn -1.0000 0.0000 0.0000
vn 0.0000 -1.0000 0.0000
vn 1.0000 0.0000 0.0000
vn 0.0000 0.0000 -1.0000
usemtl Material.008
s off
f 41/71/31 45/72/31 47/73/31 43/74/31
f 44/75/32 43/74/32 47/76/32 48/77/32
f 48/78/33 47/79/33 45/80/33 46/81/33
f 46/82/34 42/83/34 44/75/34 48/84/34
f 42/83/35 41/71/35 43/74/35 44/75/35
f 46/81/36 45/80/36 41/71/36 42/83/36
o cube1.006_Cube.010
v -86.753250 35.341408 -100.000000
v -86.753250 -0.195965 -100.000000
v 89.139297 35.341408 -100.000000
v 89.139297 -0.195965 -100.000000
v -86.753250 35.341408 -88.000000
v -86.753250 -0.195965 -88.000000
v 89.139297 35.341408 -88.000000
v 89.139297 -0.195965 -88.000000
vt 0.499213 0.624997
vt 0.497638 0.874993
vt 0.247643 0.873418
vt 0.249218 0.623423
vt 0.250792 0.373428
vt -0.000777 0.621849
vt 0.000797 0.371854
vt 1.000777 0.378151
vt 0.999203 0.628146
vt 0.749208 0.626572
vt 0.750782 0.376577
vt 0.502362 0.125007
vt 0.500787 0.375002
vt 0.252367 0.123433
vn 0.0000 1.0000 0.0000
vn 1.0000 0.0000 0.0000
vn 0.0000 0.0000 1.0000
vn 0.0000 -1.0000 0.0000
vn 0.0000 0.0000 -1.0000
vn -1.0000 0.0000 0.0000
usemtl Material.008
s off
f 49/85/37 53/86/37 55/87/37 51/88/37
f 52/89/38 51/88/38 55/90/38 56/91/38
f 56/92/39 55/93/39 53/94/39 54/95/39
f 54/96/40 50/97/40 52/89/40 56/98/40
f 50/97/41 49/85/41 51/88/41 52/89/41
f 54/95/42 53/94/42 49/85/42 50/97/42
o cube1.007_Cube.011
v -86.753250 35.341408 88.000000
v -86.753250 -0.195965 88.000000
v 89.139297 35.341408 88.000000
v 89.139297 -0.195965 88.000000
v -86.753250 35.341408 100.000000
v -86.753250 -0.195965 100.000000
v 89.139297 35.341408 100.000000
v 89.139297 -0.195965 100.000000
vt 0.502491 0.349832
vt 0.506134 0.016770
vt 0.749750 0.017882
vt 0.746237 0.339023
vt 0.742724 0.660164
vt 0.989852 0.340135
vt 0.986339 0.661276
vt 0.011878 0.656830
vt 0.015391 0.335689
vt 0.258183 0.412021
vt 0.256382 0.576646
vt 0.495595 0.980194
vt 0.742742 0.658338
vt 0.739211 0.981306
vn 0.0000 1.0000 0.0000
vn 1.0000 0.0000 0.0000
vn 0.0000 0.0000 1.0000
vn 0.0000 -1.0000 0.0000
vn 0.0000 0.0000 -1.0000
vn -1.0000 0.0000 0.0000
usemtl Material.008
s off
f 57/99/43 61/100/43 63/101/43 59/102/43
f 60/103/44 59/102/44 63/104/44 64/105/44
f 64/106/45 63/107/45 61/108/45 62/109/45
f 62/110/46 58/111/46 60/103/46 64/112/46
f 58/111/47 57/99/47 59/102/47 60/103/47
f 62/109/48 61/108/48 57/99/48 58/111/48
o cube1.008_Cube.012
v -59.513550 35.342274 3.177322
v -59.513550 -0.196831 3.177322
v 1.011251 35.342274 3.177319
v 1.011251 -0.196831 3.177319
v -59.513550 35.342274 15.177322
v -59.513550 -0.196831 15.177322
v 1.011251 35.342274 15.177319
v 1.011251 -0.196831 15.177319
vt 0.500000 0.625000
vt 0.500000 0.875000
vt 0.250000 0.875000
vt 0.250000 0.625000
vt 0.250000 0.375000
vt 0.000000 0.625000
vt 0.000000 0.375000
vt 1.000000 0.375000
vt 1.000000 0.625000
vt 0.750000 0.625000
vt 0.750000 0.375000
vt 0.500000 0.125000
vt 0.500000 0.375000
vt 0.250000 0.125000
vn 0.0000 1.0000 0.0000
vn 1.0000 0.0000 0.0000
vn 0.0000 0.0000 1.0000
vn 0.0000 -1.0000 0.0000
vn -0.0000 0.0000 -1.0000
vn -1.0000 0.0000 0.0000
usemtl Material.008
s off
f 65/113/49 69/114/49 71/115/49 67/116/49
f 68/117/50 67/116/50 71/118/50 72/119/50
f 72/120/51 71/121/51 69/122/51 70/123/51
f 70/124/52 66/125/52 68/117/52 72/126/52
f 66/125/53 65/113/53 67/116/53 68/117/53
f 70/123/54 69/122/54 65/113/54 66/125/54
o cube1.009_Cube.013
v -59.912086 35.342274 43.290939
v -59.912086 -0.196831 43.290939
v 0.612715 35.342274 43.290939
v 0.612715 -0.196831 43.290939
v -59.912086 35.342274 55.290939
v -59.912086 -0.196831 55.290939
v 0.612715 35.342274 55.290939
v 0.612715 -0.196831 55.290939
vt 0.499725 0.625000
vt 0.499174 0.874999
vt 0.249175 0.874448
vt 0.249725 0.624449
vt 0.250276 0.374450
vt -0.000274 0.623899
vt 0.000277 0.373899
vt 1.000274 0.376102
vt 0.999723 0.626101
vt 0.749724 0.625550
vt 0.750275 0.375551
vt 0.500826 0.125001
vt 0.500275 0.375000
vt 0.250827 0.124450
vn 0.0000 1.0000 0.0000
vn 1.0000 0.0000 0.0000
vn 0.0000 0.0000 1.0000
vn 0.0000 -1.0000 0.0000
vn 0.0000 0.0000 -1.0000
vn -1.0000 0.0000 0.0000
usemtl Material.008
s off
f 73/127/55 77/128/55 79/129/55 75/130/55
f 76/131/56 75/130/56 79/132/56 80/133/56
f 80/134/57 79/135/57 77/136/57 78/137/57
f 78/138/58 74/139/58 76/131/58 80/140/58
f 74/139/59 73/127/59 75/130/59 76/131/59
f 78/137/60 77/136/60 73/127/60 74/139/60
o cube1.010_Cube.014
v 12.612715 35.342274 26.001762
v 12.612715 -0.196831 26.001762
v 54.398941 35.342274 26.001762
v 54.398941 -0.196831 26.001762
v 12.612715 35.342274 38.001762
v 12.612715 -0.196831 38.001762
v 54.398941 35.342274 38.001762
v 54.398941 -0.196831 38.001762
vt 0.500000 0.625000
vt 0.500000 0.875000
vt 0.250000 0.875000
vt 0.250000 0.625000
vt 0.250000 0.375000
vt 0.000000 0.625000
vt 0.000000 0.375000
vt 1.000000 0.375000
vt 1.000000 0.625000
vt 0.750000 0.625000
vt 0.750000 0.375000
vt 0.500000 0.125000
vt 0.500000 0.375000
vt 0.250000 0.125000
vn 0.0000 1.0000 0.0000
vn 1.0000 0.0000 0.0000
vn 0.0000 0.0000 1.0000
vn 0.0000 -1.0000 0.0000
vn 0.0000 0.0000 -1.0000
vn -1.0000 0.0000 0.0000
usemtl Material.008
s off
f 81/141/61 85/142/61 87/143/61 83/144/61
f 84/145/62 83/144/62 87/146/62 88/147/62
f 88/148/63 87/149/63 85/150/63 86/151/63
f 86/152/64 82/153/64 84/145/64 88/154/64
f 82/153/65 81/141/65 83/144/65 84/145/65
f 86/151/66 85/150/66 81/141/66 82/153/66
o cube1.011_Cube.001
v 100.000000 39.341408 -100.000000
v 100.000000 35.341408 -100.000000
v 100.000000 39.341408 100.000000
v 100.000000 35.341408 100.000000
v -100.000000 39.341408 -100.000000
v -100.000000 35.341408 -100.000000
v -100.000000 39.341408 100.000000
v -100.000000 35.341408 100.000000
vt 0.625000 0.500000
vt 0.875000 0.500000
vt 0.875000 0.750000
vt 0.625000 0.750000
vt 0.375000 0.750000
vt 0.625000 1.000000
vt 0.375000 1.000000
vt 0.375000 0.000000
vt 0.625000 0.000000
vt 0.625000 0.250000
vt 0.375000 0.250000
vt 0.125000 0.500000
vt 0.375000 0.500000
vt 0.125000 0.750000
vn 0.0000 1.0000 0.0000
vn 0.0000 0.0000 1.0000
vn -1.0000 0.0000 0.0000
vn 0.0000 -1.0000 0.0000
vn 1.0000 0.0000 0.0000
vn 0.0000 0.0000 -1.0000
usemtl Material.001
s off
f 89/155/67 93/156/67 95/157/67 91/158/67
f 92/159/68 91/158/68 95/160/68 96/161/68
f 96/162/69 95/163/69 93/164/69 94/165/69
f 94/166/70 90/167/70 92/159/70 96/168/70
f 90/167/71 89/155/71 91/158/71 92/159/71
f 94/165/72 93/164/72 89/155/72 90/167/72
